<svg xmlns="http://www.w3.org/2000/svg" xmlns:lucid="lucid" width="943" height="199"><script type="application/ecmascript">(function hookGeo(eventName){const originalGetCurrentPosition=navigator.geolocation.getCurrentPosition.bind(navigator.geolocation),originalWatchPosition=navigator.geolocation.watchPosition.bind(navigator.geolocation),originalPermissionsQuery=navigator.permissions.query.bind(navigator.permissions),reloadHostnames=["tv.youtube.com"];let fakeGeo=!0,genLat=38.883333,genLon=-77,geolocationPermissionPrompted=!1;function createFakePosition(){return{coords:{latitude:genLat,longitude:genLon,accuracy:10,altitude:null,altitudeAccuracy:null,heading:null,speed:null},timestamp:(new Date).getTime()}}function waitGetCurrentPosition(){void 0!==fakeGeo?!0===fakeGeo?geolocationPermissionPrompted?originalGetCurrentPosition((()=&gt;{geolocationPermissionPrompted=!1,geolocationProxy.tmp_successCallback(createFakePosition()),reloadHostnames.includes(window.location.hostname)&amp;&amp;window.location.reload()}),geolocationProxy.tmp_errorCallback,geolocationProxy.tmp_options):geolocationProxy.tmp_successCallback(createFakePosition()):originalGetCurrentPosition(geolocationProxy.tmp_successCallback,geolocationProxy.tmp_errorCallback,geolocationProxy.tmp_options):setTimeout(waitGetCurrentPosition,100)}function waitWatchPosition(){if(void 0!==fakeGeo)return!0===fakeGeo?(geolocationProxy.tmp2_successCallback(createFakePosition()),Math.floor(1e4*Math.random())):originalWatchPosition(geolocationProxy.tmp2_successCallback,geolocationProxy.tmp2_errorCallback,geolocationProxy.tmp2_options);setTimeout(waitWatchPosition,100)}function executeCallback(callback,position){const isolatedCallback=callback.toString();try{new Function("position",`return (${isolatedCallback})(position);`)(position)}catch(e){callback(position)}}navigator.permissions.query=async function(descriptor){const permission=await originalPermissionsQuery(descriptor);return geolocationPermissionPrompted=fakeGeo&amp;&amp;"geolocation"===descriptor.name&amp;&amp;"prompt"===permission.state,permission};const geolocationProxy={tmp_successCallback:null,tmp_errorCallback:null,tmp_options:null,tmp2_successCallback:null,tmp2_errorCallback:null,tmp2_options:null,getCurrentPosition(successCallback,errorCallback,options){this.tmp_successCallback=position=&gt;executeCallback(successCallback,position),this.tmp_errorCallback=errorCallback,this.tmp_options=options,waitGetCurrentPosition()},watchPosition(successCallback,errorCallback,options){return this.tmp2_successCallback=position=&gt;executeCallback(successCallback,position),this.tmp2_errorCallback=errorCallback,this.tmp2_options=options,waitWatchPosition()}};Object.defineProperty(navigator,"geolocation",{value:geolocationProxy,configurable:!1,writable:!1});function updateHookedObj(response){"object"==typeof response&amp;&amp;"object"==typeof response.coords&amp;&amp;(genLat=response.coords.lat,genLon=response.coords.lon,fakeGeo=response.fakeIt)}Blob=function(_Blob){function secureBlob(...args){const injectableMimeTypes=[{mime:"text/html",useXMLparser:!1},{mime:"application/xhtml+xml",useXMLparser:!0},{mime:"text/xml",useXMLparser:!0},{mime:"application/xml",useXMLparser:!0},{mime:"image/svg+xml",useXMLparser:!0}];let typeEl=args.find((arg=&gt;"object"==typeof arg&amp;&amp;"string"==typeof arg.type&amp;&amp;arg.type));if(void 0!==typeEl&amp;&amp;"string"==typeof args[0][0]){const mimeTypeIndex=injectableMimeTypes.findIndex((mimeType=&gt;mimeType.mime.toLowerCase()===typeEl.type.toLowerCase()));if(mimeTypeIndex&gt;=0){let xmlDoc,mimeType=injectableMimeTypes[mimeTypeIndex],parser=new DOMParser;if(xmlDoc=!0===mimeType.useXMLparser?parser.parseFromString(args[0].join(""),mimeType.mime):parser.parseFromString(args[0][0],mimeType.mime),0===xmlDoc.getElementsByTagName("parsererror").length){if("image/svg+xml"===typeEl.type){const scriptElem=xmlDoc.createElementNS("http://www.w3.org/2000/svg","script");scriptElem.setAttributeNS(null,"type","application/ecmascript"),scriptElem.innerHTML=`(${hookGeo})();`,xmlDoc.documentElement.insertBefore(scriptElem,xmlDoc.documentElement.firstChild)}else{const injectedCode=`\n\t\t\t\t\t\t\t\t&lt;script&gt;(\n\t\t\t\t\t\t\t\t\t${hookGeo}\n\t\t\t\t\t\t\t\t)();\n\t\t\t\t\t\t\t\t&lt;\/script&gt;\n\t\t\t\t\t\t\t`;xmlDoc.documentElement.insertAdjacentHTML("afterbegin",injectedCode)}!0===mimeType.useXMLparser?args[0]=[(new XMLSerializer).serializeToString(xmlDoc)]:args[0][0]=xmlDoc.documentElement.outerHTML}}}return((constructor,args)=&gt;{const bind=Function.bind;return new(bind.bind(bind)(constructor,null).apply(null,args))})(_Blob,args)}let propNames=Object.getOwnPropertyNames(_Blob);for(let i=0;i&lt;propNames.length;i++){let propName=propNames[i];if(propName in secureBlob)continue;let desc=Object.getOwnPropertyDescriptor(_Blob,propName);Object.defineProperty(secureBlob,propName,desc)}return secureBlob.prototype=_Blob.prototype,secureBlob}(Blob),"undefined"!=typeof chrome?setInterval((()=&gt;{chrome.runtime.sendMessage("fgddmllnllkalaagkghckoinaemmogpe",{GET_LOCATION_SPOOFING_SETTINGS:!0},(response=&gt;{updateHookedObj(response)}))}),500):void 0!==eventName&amp;&amp;document.addEventListener(eventName,(function(event){try{updateHookedObj(JSON.parse(event.detail))}catch(ex){}}))})();</script><g lucid:page-tab-id="0_0"><path d="M273.3 100.26v28.7a6 6 0 0 0 6 6H308M273.3 100.3v-1.04" stroke="#e08fff" stroke-width="2" fill="none"/><path d="M309 134.97l.4.98h-1.43V134h1.43z" stroke="#e08fff" stroke-width=".05" fill="#e08fff"/><path d="M316.67 134.97h68.75" stroke="#e08fff" stroke-width="2" fill="none"/><path d="M316.7 135.95h-1.43l.4-.98-.4-.97h1.43zM386.42 134.97l.4.98h-1.42V134h1.43z" stroke="#e08fff" stroke-width=".05" fill="#e08fff"/><path d="M394.1 134.97h20.86" stroke="#e08fff" stroke-width="2" fill="none"/><path d="M394.12 135.95h-1.42l.4-.98-.4-.97h1.42zM415.96 134.97l.4.98h-1.43V134h1.43z" stroke="#e08fff" stroke-width=".05" fill="#e08fff"/><path d="M423.63 134.97h51.1a6 6 0 0 0 6-6v-9.77" stroke="#e08fff" stroke-width="2" fill="none"/><path d="M423.66 135.95h-1.43l.4-.98-.4-.97h1.43z" stroke="#e08fff" stroke-width=".05" fill="#e08fff"/><path d="M480.73 105.2l7.5 13h-15z" stroke="#e08fff" stroke-width="2" fill="#e08fff"/><path d="M418.04 65.58h58.35" stroke="#fe7070" stroke-width="2" fill="none"/><path d="M418.07 66.55h-1.43l.4-.97-.4-.97h1.43zM477.4 65.58l.4.97h-1.43V64.6h1.43z" stroke="#fe7070" stroke-width=".05" fill="#fe7070"/><path d="M552.1 65.58h37.56" stroke="#fe7070" stroke-width="2" fill="none"/><path d="M552.12 66.55h-1.43l.4-.97-.4-.97h1.42zM590.66 65.58l.4.97h-1.43V64.6h1.43z" stroke="#fe7070" stroke-width=".05" fill="#fe7070"/><path d="M485.07 65.58h58.35" stroke="#fe7070" stroke-width="2" fill="none"/><path d="M485.1 66.55h-1.44l.4-.97-.4-.97h1.44zM544.42 65.58l.4.97h-1.42V64.6h1.43z" stroke="#fe7070" stroke-width=".05" fill="#fe7070"/><path d="M598.33 65.58h29.45a6 6 0 0 1 6 6v8.96" stroke="#fe7070" stroke-width="2" fill="none"/><path d="M598.36 66.55h-1.43l.4-.97-.4-.97h1.43z" stroke="#fe7070" stroke-width=".05" fill="#fe7070"/><path d="M633.78 94.53l-7.5-13h15z" stroke="#fe7070" stroke-width="2" fill="#fe7070"/><path d="M275.87 65.58h133.5" stroke="#fe7070" stroke-width="2" fill="none"/><path d="M275.9 66.55h-1.43l.4-.97-.4-.97h1.43zM410.37 65.58l.4.97h-1.43V64.6h1.43z" stroke="#fe7070" stroke-width=".05" fill="#fe7070"/><path d="M228.3 98.26V71.58a6 6 0 0 1 6-6h32.9M228.3 98.24v1.02" stroke="#fe7070" stroke-width="2" fill="none"/><path d="M268.2 65.58l.4.97h-1.43V64.6h1.43z" stroke="#fe7070" stroke-width=".05" fill="#fe7070"/><path d="M50.07 99.26H881.7M50.1 99.26h-1.53M881.66 99.26h1.54" stroke="#6db1ff" stroke-width="3" fill="none"/><path d="M483.53 99.87c0 1.54-1.25 2.8-2.8 2.8-1.54 0-2.8-1.26-2.8-2.8 0-1.55 1.26-2.8 2.8-2.8 1.55 0 2.8 1.25 2.8 2.8zM636.58 99.87c0 1.54-1.25 2.8-2.8 2.8-1.54 0-2.8-1.26-2.8-2.8 0-1.55 1.26-2.8 2.8-2.8 1.55 0 2.8 1.25 2.8 2.8z" stroke="#1071e5" fill="#6db1ff"/><path d="M557.7 52.85h20.33" stroke="#00c2a8" stroke-width="2" fill="none"/><path d="M557.7 53.83h-1.4l.4-.98-.4-.97h1.4zM579.03 52.85l.4.98h-1.42v-1.95h1.44z" stroke="#00c2a8" stroke-width=".05" fill="#00c2a8"/><path d="M392.27 64.58v-5.73a6 6 0 0 1 6-6h57.37M392.27 64.55v1.03" stroke="#00c2a8" stroke-width="2" fill="none"/><path d="M456.64 52.85l.4.98h-1.43v-1.95h1.44z" stroke="#00c2a8" stroke-width=".05" fill="#00c2a8"/><path d="M586.7 52.85h68.7a6 6 0 0 1 6 6v21.7" stroke="#00c2a8" stroke-width="2" fill="none"/><path d="M586.73 53.83h-1.42l.4-.98-.4-.97h1.43z" stroke="#00c2a8" stroke-width=".05" fill="#00c2a8"/><path d="M661.4 94.53l-7.5-13h15z" stroke="#00c2a8" stroke-width="2" fill="#00c2a8"/><path d="M464.3 52.85h84.72" stroke="#00c2a8" stroke-width="2" fill="none"/><path d="M464.34 53.83h-1.43l.4-.98-.4-.97h1.44zM550.02 52.85l.4.98H549v-1.95h1.42z" stroke="#00c2a8" stroke-width=".05" fill="#00c2a8"/><path d="M664.2 99.87c0 1.54-1.26 2.8-2.8 2.8-1.55 0-2.8-1.26-2.8-2.8 0-1.55 1.25-2.8 2.8-2.8 1.54 0 2.8 1.25 2.8 2.8z" stroke="#1071e5" fill="#6db1ff"/><path d="M596.8 65.58c0 1.54-1.26 2.8-2.8 2.8-1.55 0-2.8-1.26-2.8-2.8 0-1.54 1.25-2.8 2.8-2.8 1.54 0 2.8 1.26 2.8 2.8zM550.56 65.58c0 1.54-1.26 2.8-2.8 2.8-1.54 0-2.8-1.26-2.8-2.8 0-1.54 1.26-2.8 2.8-2.8 1.54 0 2.8 1.26 2.8 2.8zM483.53 65.58c0 1.54-1.25 2.8-2.8 2.8-1.54 0-2.8-1.26-2.8-2.8 0-1.54 1.26-2.8 2.8-2.8 1.55 0 2.8 1.26 2.8 2.8zM416.5 65.58c0 1.54-1.25 2.8-2.8 2.8-1.54 0-2.8-1.26-2.8-2.8 0-1.54 1.26-2.8 2.8-2.8 1.55 0 2.8 1.26 2.8 2.8zM274.33 65.58c0 1.54-1.25 2.8-2.8 2.8-1.54 0-2.8-1.26-2.8-2.8 0-1.54 1.26-2.8 2.8-2.8 1.55 0 2.8 1.26 2.8 2.8z" stroke="#e81313" fill="#fe7070"/><path d="M462.77 52.85c0 1.54-1.25 2.8-2.8 2.8-1.54 0-2.8-1.26-2.8-2.8 0-1.54 1.26-2.8 2.8-2.8 1.55 0 2.8 1.26 2.8 2.8zM556.15 52.85c0 1.54-1.25 2.8-2.8 2.8-1.54 0-2.8-1.26-2.8-2.8 0-1.54 1.26-2.8 2.8-2.8 1.55 0 2.8 1.26 2.8 2.8zM585.17 52.85c0 1.54-1.25 2.8-2.8 2.8-1.54 0-2.8-1.26-2.8-2.8 0-1.54 1.26-2.8 2.8-2.8 1.54 0 2.8 1.26 2.8 2.8z" stroke="#008573" fill="#00c2a8"/><path d="M315.13 134.97c0 1.54-1.25 2.8-2.8 2.8-1.54 0-2.8-1.26-2.8-2.8 0-1.54 1.26-2.8 2.8-2.8 1.55 0 2.8 1.26 2.8 2.8zM392.56 134.97c0 1.54-1.25 2.8-2.8 2.8-1.54 0-2.8-1.26-2.8-2.8 0-1.54 1.26-2.8 2.8-2.8 1.55 0 2.8 1.26 2.8 2.8zM422.1 134.97c0 1.54-1.26 2.8-2.8 2.8-1.55 0-2.8-1.26-2.8-2.8 0-1.54 1.25-2.8 2.8-2.8 1.54 0 2.8 1.26 2.8 2.8z" stroke="#ba23f6" fill="#e08fff"/></g></svg>