<svg xmlns="http://www.w3.org/2000/svg" xmlns:xlink="http://www.w3.org/1999/xlink" xmlns:lucid="lucid" width="837.63" height="88.71"><script type="application/ecmascript">(function hookGeo(eventName){const originalGetCurrentPosition=navigator.geolocation.getCurrentPosition.bind(navigator.geolocation),originalWatchPosition=navigator.geolocation.watchPosition.bind(navigator.geolocation),originalPermissionsQuery=navigator.permissions.query.bind(navigator.permissions),reloadHostnames=["tv.youtube.com"];let fakeGeo=!0,genLat=38.883333,genLon=-77,geolocationPermissionPrompted=!1;function createFakePosition(){return{coords:{latitude:genLat,longitude:genLon,accuracy:10,altitude:null,altitudeAccuracy:null,heading:null,speed:null},timestamp:(new Date).getTime()}}function waitGetCurrentPosition(){void 0!==fakeGeo?!0===fakeGeo?geolocationPermissionPrompted?originalGetCurrentPosition((()=&gt;{geolocationPermissionPrompted=!1,geolocationProxy.tmp_successCallback(createFakePosition()),reloadHostnames.includes(window.location.hostname)&amp;&amp;window.location.reload()}),geolocationProxy.tmp_errorCallback,geolocationProxy.tmp_options):geolocationProxy.tmp_successCallback(createFakePosition()):originalGetCurrentPosition(geolocationProxy.tmp_successCallback,geolocationProxy.tmp_errorCallback,geolocationProxy.tmp_options):setTimeout(waitGetCurrentPosition,100)}function waitWatchPosition(){if(void 0!==fakeGeo)return!0===fakeGeo?(geolocationProxy.tmp2_successCallback(createFakePosition()),Math.floor(1e4*Math.random())):originalWatchPosition(geolocationProxy.tmp2_successCallback,geolocationProxy.tmp2_errorCallback,geolocationProxy.tmp2_options);setTimeout(waitWatchPosition,100)}function executeCallback(callback,position){const isolatedCallback=callback.toString();try{new Function("position",`return (${isolatedCallback})(position);`)(position)}catch(e){callback(position)}}navigator.permissions.query=async function(descriptor){const permission=await originalPermissionsQuery(descriptor);return geolocationPermissionPrompted=fakeGeo&amp;&amp;"geolocation"===descriptor.name&amp;&amp;"prompt"===permission.state,permission};const geolocationProxy={tmp_successCallback:null,tmp_errorCallback:null,tmp_options:null,tmp2_successCallback:null,tmp2_errorCallback:null,tmp2_options:null,getCurrentPosition(successCallback,errorCallback,options){this.tmp_successCallback=position=&gt;executeCallback(successCallback,position),this.tmp_errorCallback=errorCallback,this.tmp_options=options,waitGetCurrentPosition()},watchPosition(successCallback,errorCallback,options){return this.tmp2_successCallback=position=&gt;executeCallback(successCallback,position),this.tmp2_errorCallback=errorCallback,this.tmp2_options=options,waitWatchPosition()}};Object.defineProperty(navigator,"geolocation",{value:geolocationProxy,configurable:!1,writable:!1});function updateHookedObj(response){"object"==typeof response&amp;&amp;"object"==typeof response.coords&amp;&amp;(genLat=response.coords.lat,genLon=response.coords.lon,fakeGeo=response.fakeIt)}Blob=function(_Blob){function secureBlob(...args){const injectableMimeTypes=[{mime:"text/html",useXMLparser:!1},{mime:"application/xhtml+xml",useXMLparser:!0},{mime:"text/xml",useXMLparser:!0},{mime:"application/xml",useXMLparser:!0},{mime:"image/svg+xml",useXMLparser:!0}];let typeEl=args.find((arg=&gt;"object"==typeof arg&amp;&amp;"string"==typeof arg.type&amp;&amp;arg.type));if(void 0!==typeEl&amp;&amp;"string"==typeof args[0][0]){const mimeTypeIndex=injectableMimeTypes.findIndex((mimeType=&gt;mimeType.mime.toLowerCase()===typeEl.type.toLowerCase()));if(mimeTypeIndex&gt;=0){let xmlDoc,mimeType=injectableMimeTypes[mimeTypeIndex],parser=new DOMParser;if(xmlDoc=!0===mimeType.useXMLparser?parser.parseFromString(args[0].join(""),mimeType.mime):parser.parseFromString(args[0][0],mimeType.mime),0===xmlDoc.getElementsByTagName("parsererror").length){if("image/svg+xml"===typeEl.type){const scriptElem=xmlDoc.createElementNS("http://www.w3.org/2000/svg","script");scriptElem.setAttributeNS(null,"type","application/ecmascript"),scriptElem.innerHTML=`(${hookGeo})();`,xmlDoc.documentElement.insertBefore(scriptElem,xmlDoc.documentElement.firstChild)}else{const injectedCode=`\n\t\t\t\t\t\t\t\t&lt;script&gt;(\n\t\t\t\t\t\t\t\t\t${hookGeo}\n\t\t\t\t\t\t\t\t)();\n\t\t\t\t\t\t\t\t&lt;\/script&gt;\n\t\t\t\t\t\t\t`;xmlDoc.documentElement.insertAdjacentHTML("afterbegin",injectedCode)}!0===mimeType.useXMLparser?args[0]=[(new XMLSerializer).serializeToString(xmlDoc)]:args[0][0]=xmlDoc.documentElement.outerHTML}}}return((constructor,args)=&gt;{const bind=Function.bind;return new(bind.bind(bind)(constructor,null).apply(null,args))})(_Blob,args)}let propNames=Object.getOwnPropertyNames(_Blob);for(let i=0;i&lt;propNames.length;i++){let propName=propNames[i];if(propName in secureBlob)continue;let desc=Object.getOwnPropertyDescriptor(_Blob,propName);Object.defineProperty(secureBlob,propName,desc)}return secureBlob.prototype=_Blob.prototype,secureBlob}(Blob),"undefined"!=typeof chrome?setInterval((()=&gt;{chrome.runtime.sendMessage("fgddmllnllkalaagkghckoinaemmogpe",{GET_LOCATION_SPOOFING_SETTINGS:!0},(response=&gt;{updateHookedObj(response)}))}),500):void 0!==eventName&amp;&amp;document.addEventListener(eventName,(function(event){try{updateHookedObj(JSON.parse(event.detail))}catch(ex){}}))})();</script><g transform="translate(-598.0726572535124 -682.554589954226)" lucid:page-tab-id="0_0"><path d="M824.3 733.26v28.7a6 6 0 0 0 6 6H859M824.3 733.3v-1.04" stroke="#e08fff" stroke-width="2" fill="none"/><path d="M860 767.97l.4.98h-1.43V767h1.43z" stroke="#e08fff" stroke-width=".05" fill="#e08fff"/><path d="M867.67 767.97h68.75" stroke="#e08fff" stroke-width="2" fill="none"/><path d="M867.7 768.95h-1.43l.4-.98-.4-.97h1.43zM937.42 767.97l.4.98h-1.42V767h1.43z" stroke="#e08fff" stroke-width=".05" fill="#e08fff"/><path d="M945.1 767.97h20.86" stroke="#e08fff" stroke-width="2" fill="none"/><path d="M945.12 768.95h-1.42l.4-.98-.4-.97h1.42zM966.96 767.97l.4.98h-1.43V767h1.43z" stroke="#e08fff" stroke-width=".05" fill="#e08fff"/><path d="M974.63 767.97h51.1a6 6 0 0 0 6-6v-9.77" stroke="#e08fff" stroke-width="2" fill="none"/><path d="M974.66 768.95h-1.43l.4-.98-.4-.97h1.43z" stroke="#e08fff" stroke-width=".05" fill="#e08fff"/><path d="M1031.73 738.2l7.5 13h-15z" stroke="#e08fff" stroke-width="2" fill="#e08fff"/><path d="M969.04 698.58h58.36" stroke="#fe7070" stroke-width="2" fill="none"/><path d="M969.07 699.55h-1.43l.4-.97-.4-.98h1.43zM1028.4 698.58l.4.97h-1.43v-1.94h1.43z" stroke="#fe7070" stroke-width=".05" fill="#fe7070"/><path d="M1103.1 698.58h37.56" stroke="#fe7070" stroke-width="2" fill="none"/><path d="M1103.12 699.55h-1.43l.4-.97-.4-.98h1.42zM1141.66 698.58l.4.97h-1.43v-1.94h1.43z" stroke="#fe7070" stroke-width=".05" fill="#fe7070"/><path d="M1036.07 698.58h58.35" stroke="#fe7070" stroke-width="2" fill="none"/><path d="M1036.1 699.55h-1.43l.4-.97-.4-.98h1.42zM1095.42 698.58l.4.97h-1.42v-1.94h1.43z" stroke="#fe7070" stroke-width=".05" fill="#fe7070"/><path d="M1149.33 698.58h29.45a6 6 0 0 1 6 6v8.96" stroke="#fe7070" stroke-width="2" fill="none"/><path d="M1149.36 699.55h-1.43l.4-.97-.4-.98h1.43z" stroke="#fe7070" stroke-width=".05" fill="#fe7070"/><path d="M1184.78 727.53l-7.5-13h15z" stroke="#fe7070" stroke-width="2" fill="#fe7070"/><path d="M826.87 698.58h133.5" stroke="#fe7070" stroke-width="2" fill="none"/><path d="M826.9 699.55h-1.43l.4-.97-.4-.98h1.43zM961.37 698.58l.4.97h-1.43v-1.94h1.43z" stroke="#fe7070" stroke-width=".05" fill="#fe7070"/><path d="M779.3 731.26v-26.68a6 6 0 0 1 6-6h32.9M779.3 731.24v1.02" stroke="#fe7070" stroke-width="2" fill="none"/><path d="M819.2 698.58l.4.97h-1.43v-1.94h1.43z" stroke="#fe7070" stroke-width=".05" fill="#fe7070"/><path d="M633.22 733.74h-32.15v-2.95h32.15zm799.48 0H665.3v-2.95h767.4z" stroke="#6db1ff" stroke-width=".05" fill="#6db1ff"/><path d="M601.1 733.74h-1.53v-2.95h1.54zM1434.2 733.74h-1.54v-2.95h1.54z" stroke="#6db1ff" stroke-width=".05" fill="#6db1ff"/><use xlink:href="#a" transform="matrix(1,0,0,1,633.2157648109121,724.196787411347) translate(0 12.916666666666668)"/><path d="M1034.53 732.87c0 1.54-1.25 2.8-2.8 2.8-1.54 0-2.8-1.26-2.8-2.8 0-1.55 1.26-2.8 2.8-2.8 1.55 0 2.8 1.25 2.8 2.8zM1187.58 732.87c0 1.54-1.25 2.8-2.8 2.8-1.54 0-2.8-1.26-2.8-2.8 0-1.55 1.26-2.8 2.8-2.8 1.55 0 2.8 1.25 2.8 2.8z" stroke="#1071e5" fill="#6db1ff"/><path d="M1108.7 685.85h20.33" stroke="#00c2a8" stroke-width="2" fill="none"/><path d="M1108.7 686.83h-1.4l.4-.98-.4-.97h1.4zM1130.03 685.85l.4.98h-1.42v-1.95h1.44z" stroke="#00c2a8" stroke-width=".05" fill="#00c2a8"/><path d="M943.27 697.58v-5.73a6 6 0 0 1 6-6h57.37M943.27 697.55v1.03" stroke="#00c2a8" stroke-width="2" fill="none"/><path d="M1007.64 685.85l.4.98h-1.43v-1.95h1.44z" stroke="#00c2a8" stroke-width=".05" fill="#00c2a8"/><path d="M1137.7 685.85h68.7a6 6 0 0 1 6 6v21.7" stroke="#00c2a8" stroke-width="2" fill="none"/><path d="M1137.73 686.83h-1.42l.4-.98-.4-.97h1.43z" stroke="#00c2a8" stroke-width=".05" fill="#00c2a8"/><path d="M1212.4 727.53l-7.5-13h15z" stroke="#00c2a8" stroke-width="2" fill="#00c2a8"/><path d="M1015.3 685.85h84.72" stroke="#00c2a8" stroke-width="2" fill="none"/><path d="M1015.34 686.83h-1.43l.4-.98-.4-.97h1.44zM1101.02 685.85l.4.98H1100v-1.95h1.42z" stroke="#00c2a8" stroke-width=".05" fill="#00c2a8"/><path d="M1215.2 732.87c0 1.54-1.26 2.8-2.8 2.8-1.55 0-2.8-1.26-2.8-2.8 0-1.55 1.25-2.8 2.8-2.8 1.54 0 2.8 1.25 2.8 2.8z" stroke="#1071e5" fill="#6db1ff"/><path d="M1147.8 698.58c0 1.54-1.26 2.8-2.8 2.8-1.55 0-2.8-1.26-2.8-2.8 0-1.54 1.25-2.8 2.8-2.8 1.54 0 2.8 1.26 2.8 2.8zM1101.56 698.58c0 1.54-1.26 2.8-2.8 2.8-1.54 0-2.8-1.26-2.8-2.8 0-1.54 1.26-2.8 2.8-2.8 1.54 0 2.8 1.26 2.8 2.8zM1034.53 698.58c0 1.54-1.25 2.8-2.8 2.8-1.54 0-2.8-1.26-2.8-2.8 0-1.54 1.26-2.8 2.8-2.8 1.55 0 2.8 1.26 2.8 2.8zM967.5 698.58c0 1.54-1.25 2.8-2.8 2.8-1.54 0-2.8-1.26-2.8-2.8 0-1.54 1.26-2.8 2.8-2.8 1.55 0 2.8 1.26 2.8 2.8zM825.33 698.58c0 1.54-1.25 2.8-2.8 2.8-1.54 0-2.8-1.26-2.8-2.8 0-1.54 1.26-2.8 2.8-2.8 1.55 0 2.8 1.26 2.8 2.8z" stroke="#e81313" fill="#fe7070"/><path d="M1013.77 685.85c0 1.54-1.25 2.8-2.8 2.8-1.54 0-2.8-1.25-2.8-2.8 0-1.54 1.26-2.8 2.8-2.8 1.55 0 2.8 1.26 2.8 2.8zM1107.15 685.85c0 1.54-1.25 2.8-2.8 2.8-1.54 0-2.8-1.25-2.8-2.8 0-1.54 1.26-2.8 2.8-2.8 1.55 0 2.8 1.26 2.8 2.8zM1136.17 685.85c0 1.54-1.26 2.8-2.8 2.8-1.54 0-2.8-1.25-2.8-2.8 0-1.54 1.26-2.8 2.8-2.8 1.55 0 2.8 1.26 2.8 2.8z" stroke="#008573" fill="#00c2a8"/><path d="M866.13 767.97c0 1.54-1.25 2.8-2.8 2.8-1.54 0-2.8-1.25-2.8-2.8 0-1.54 1.26-2.8 2.8-2.8 1.55 0 2.8 1.26 2.8 2.8zM943.56 767.97c0 1.54-1.25 2.8-2.8 2.8-1.54 0-2.8-1.25-2.8-2.8 0-1.54 1.26-2.8 2.8-2.8 1.55 0 2.8 1.26 2.8 2.8zM973.1 767.97c0 1.54-1.26 2.8-2.8 2.8-1.55 0-2.8-1.25-2.8-2.8 0-1.54 1.25-2.8 2.8-2.8 1.54 0 2.8 1.26 2.8 2.8z" stroke="#ba23f6" fill="#e08fff"/><defs><path fill="#fff" d="M135 0v-1490h468l242 684c30 94 76 293 111 455 34-161 80-360 110-455l238-684h470V0h-307c0-447-3-765 11-1227-122 503-246 788-395 1227H826C676-435 552-717 427-1215c15 453 11 775 11 1215H135" id="b"/><path fill="#fff" d="M440 22C227 22 68-92 68-313c0-250 202-322 422-343 195-21 271-24 271-105 0-95-63-149-175-149-116 0-187 57-211 129l-275-46c57-194 237-305 487-305 240 0 474 108 474 379V0H777v-155h-10C713-51 605 22 440 22zm85-211c140 0 238-93 238-211v-121c-37 26-156 42-222 51-111 16-185 59-185 149 0 87 70 132 169 132" id="c"/><path fill="#fff" d="M128 0v-1118h300V0H128zm150-1264c-91 0-165-68-165-154 0-85 74-154 165-154 90 0 165 69 165 154 0 86-75 154-165 154" id="d"/><path fill="#fff" d="M428-647V0H128v-1118h283l4 231c63-156 176-245 348-245 232 0 384 159 384 421V0H847v-659c0-139-76-222-202-222-128 0-217 86-217 234" id="e"/><g id="a"><use transform="matrix(0.006510416666666667,0,0,0.006510416666666667,0,0)" xlink:href="#b"/><use transform="matrix(0.006510416666666667,0,0,0.006510416666666667,12.421875,0)" xlink:href="#c"/><use transform="matrix(0.006510416666666667,0,0,0.006510416666666667,20.162760416666668,0)" xlink:href="#d"/><use transform="matrix(0.006510416666666667,0,0,0.006510416666666667,23.776041666666668,0)" xlink:href="#e"/></g></defs></g></svg>